<svg width="1728" height="99" viewBox="0 0 1728 99" fill="none" xmlns="http://www.w3.org/2000/svg">
<mask id="path-1-inside-1_15_96" fill="white">
<path d="M0 -1H1728V99H0V-1Z"/>
</mask>
<path d="M1728 99V97H0V99V101H1728V99Z" fill="#2175D9" mask="url(#path-1-inside-1_15_96)"/>
<mask id="path-3-inside-2_15_96" fill="white">
<path d="M0 -1H1728V99H0V-1Z"/>
</mask>
<path d="M0 -1H1728V99H0V-1Z" fill="#0F1941"/>
<path d="M1728 99V94H0V99V104H1728V99Z" fill="#2175D9" mask="url(#path-3-inside-2_15_96)"/>
<g clip-path="url(#clip0_15_96)">
<path d="M144.758 40.5165C143.475 39.8061 141.943 39.4509 140.149 39.4509H133.925V57.3888H140.03C141.859 57.3888 143.415 57.0335 144.722 56.3113C146.017 55.589 147.014 54.559 147.715 53.221C148.404 51.8831 148.749 50.2728 148.749 48.4139C148.749 46.555 148.404 44.9566 147.715 43.6068C147.026 42.257 146.029 41.2388 144.746 40.5284L144.758 40.5165ZM144.9 51.8357C144.473 52.7474 143.843 53.4341 143 53.8841C142.156 54.334 141.111 54.559 139.864 54.559H137.18V42.2689H139.947C141.171 42.2689 142.192 42.4938 143.024 42.9438C143.855 43.3937 144.473 44.0804 144.9 44.9803C145.316 45.892 145.53 47.0286 145.53 48.4021C145.53 49.7755 145.316 50.9122 144.9 51.8357Z" fill="white"/>
<path d="M161.588 49.669H169.416V46.9813H161.588V42.1741H170.045V39.4509H158.334V57.3888H170.093V54.6655H161.588V49.669Z" fill="white"/>
<path d="M191.793 39.4509L187.126 53.5525H186.924L182.256 39.4509H178.669L185.023 57.3888H189.026L195.369 39.4509H191.793Z" fill="white"/>
<path d="M117.807 54.0735C117.807 54.6182 117.688 55.0207 117.451 55.2812C117.213 55.5417 116.869 55.6601 116.394 55.6601H113.412C112.818 55.6601 112.32 55.743 111.928 55.8969C111.524 56.0627 111.191 56.2995 110.93 56.6073C110.752 56.8204 110.597 57.0572 110.455 57.3177C110.312 57.0572 110.158 56.8204 109.991 56.6073C109.73 56.2995 109.398 56.0508 108.994 55.8969C108.602 55.743 108.103 55.6601 107.509 55.6601H104.516C104.041 55.6601 103.696 55.5417 103.459 55.2812C103.221 55.0207 103.102 54.6182 103.102 54.0735V52.1791H100.632V54.3932C100.632 55.6009 100.929 56.5718 101.535 57.2822C102.14 58.0044 103.019 58.3715 104.136 58.3715H107.568C107.996 58.3715 108.34 58.4425 108.602 58.5964C108.851 58.7385 109.029 58.928 109.148 59.1648C109.267 59.4016 109.326 59.6739 109.326 59.9699V61.0118H111.607V59.9699C111.607 59.6857 111.666 59.4134 111.785 59.1648C111.904 58.928 112.082 58.7504 112.331 58.5964C112.581 58.4544 112.937 58.3715 113.365 58.3715H116.786C117.522 58.3715 118.163 58.2057 118.686 57.886C119.209 57.5545 119.624 57.0927 119.886 56.4889C120.147 55.9087 120.278 55.1983 120.278 54.405V52.1436H117.819V54.0853L117.807 54.0735Z" fill="white"/>
<path d="M103.174 39.4509H117.736V45.5131H120.194V37H100.715V45.5131H103.174V39.4509Z" fill="white"/>
</g>
<path d="M1616 39C1610.48 39 1606 43.48 1606 49C1606 54.52 1610.48 59 1616 59C1621.52 59 1626 54.52 1626 49C1626 43.48 1621.52 39 1616 39ZM1611.35 55.5C1612.66 54.56 1614.26 54 1616 54C1617.74 54 1619.34 54.56 1620.65 55.5C1619.34 56.44 1617.74 57 1616 57C1614.26 57 1612.66 56.44 1611.35 55.5ZM1622.14 54.12C1620.45 52.8 1618.32 52 1616 52C1613.68 52 1611.55 52.8 1609.86 54.12C1608.7 52.73 1608 50.95 1608 49C1608 44.58 1611.58 41 1616 41C1620.42 41 1624 44.58 1624 49C1624 50.95 1623.3 52.73 1622.14 54.12Z" fill="white"/>
<path d="M1616 43C1614.07 43 1612.5 44.57 1612.5 46.5C1612.5 48.43 1614.07 50 1616 50C1617.93 50 1619.5 48.43 1619.5 46.5C1619.5 44.57 1617.93 43 1616 43ZM1616 48C1615.17 48 1614.5 47.33 1614.5 46.5C1614.5 45.67 1615.17 45 1616 45C1616.83 45 1617.5 45.67 1617.5 46.5C1617.5 47.33 1616.83 48 1616 48Z" fill="white"/>
<defs>
<clipPath id="clip0_15_96">
<rect width="94.7368" height="24" fill="white" transform="translate(100.632 37)"/>
</clipPath>
</defs>
</svg>
